<?xml version="1.0" standalone="no"?><!DOCTYPE svg PUBLIC "-//W3C//DTD SVG 1.1//EN" "http://www.w3.org/Graphics/SVG/1.1/DTD/svg11.dtd"><svg t="1748584109931" class="icon" viewBox="0 0 1024 1024" version="1.1" xmlns="http://www.w3.org/2000/svg" p-id="16222" xmlns:xlink="http://www.w3.org/1999/xlink" width="200" height="200"><path d="M873.696474 355.286663l103.080225 171.364333L757.796627 829.351048l-103.341849-171.364334z" fill="#3E72A7" p-id="16223"></path><path d="M865.324476 382.234032c5.494124-7.587123 15.959121-3.662749 23.546244 8.895248l65.667859 109.359223c7.587123 12.296372 9.156873 28.517118 3.66275 36.104241l-48.138989 66.714359c-5.494124 7.587123-15.959121 3.662749-23.546244-8.895248l-65.667859-109.359223c-7.587123-12.296372-9.156873-28.517118-3.662749-36.104242l48.138988-66.714358m-71.946857 99.6791c5.494124-7.587123 15.959121-3.662749 23.546244 8.895248l65.667859 109.359223c7.587123 12.296372 9.156873 28.517118 3.662749 36.104242l-48.138988 66.714358c-5.494124 7.587123-15.959121 3.662749-23.546244-8.895247l-65.667859-109.359224c-7.587123-12.296372-9.156873-28.517118-3.662749-36.104241l48.138988-66.714359m-71.946858 99.417476c5.494124-7.587123 15.959121-3.662749 23.546245 8.895248l65.667859 109.359223c7.587123 12.296372 9.156873 28.517118 3.662749 36.104241l-48.138989 66.714359c-5.494124 7.587123-15.959121 3.662749-23.546244-8.895248l-65.667859-109.359223c-7.587123-12.296372-9.156873-28.778743-3.662749-36.104241l48.138988-66.714359m36.889116 249.066939l218.980072-302.700051-104.38835-173.457332-218.980071 302.700051 104.388349 173.457332" fill="#3F3B3A" p-id="16224"></path><path d="M910.06234 603.307103l48.138989-66.714359c5.494124-7.587123 3.924374-23.807869-3.66275-36.104241l-65.667859-109.359223c-7.587123-12.296372-18.052121-16.482371-23.546244-8.895248l-48.138988 66.714358c-5.494124 7.587123-3.924374 23.807869 3.662749 36.104242l65.667859 109.359223c7.587123 12.557997 18.052121 16.482371 23.546244 8.895248" fill="#4077AC" p-id="16225"></path><path d="M838.115483 702.724578l48.138988-66.714358c5.494124-7.587123 3.924374-23.807869-3.662749-36.104241l-65.667859-109.359224c-7.587123-12.296372-18.052121-16.482371-23.546244-8.895248l-48.138988 66.714359c-5.494124 7.587123-3.924374 23.807869 3.662749 36.104241l65.667859 109.359224c7.587123 12.557997 18.052121 16.482371 23.546244 8.895247" fill="#DF623E" p-id="16226"></path><path d="M765.907001 802.403679l48.138988-66.714359c5.494124-7.587123 3.924374-23.807869-3.662749-36.104241l-65.667859-109.359223c-7.587123-12.296372-18.052121-16.482371-23.546245-8.895248l-48.138988 66.714359c-5.494124 7.587123-3.924374 23.807869 3.662749 36.104241l65.667859 109.359223c7.587123 12.557997 18.052121 16.220746 23.546245 8.895248" fill="#A3CEDE" p-id="16227"></path><path d="M654.454778 657.986714l103.341849 171.364334-480.081757 171.364333L174.37302 829.351048z" fill="#2C5782" p-id="16228"></path><path d="M630.385284 677.085335c12.034747-4.185999 27.732243 2.354624 35.319366 14.650996l65.667859 109.359223c7.587123 12.296372 3.662749 25.900869-8.110373 30.348493L617.565662 869.118038c-12.034747 4.185999-27.732243-2.354624-35.319367-14.650997l-65.667859-109.359223c-7.587123-12.296372-3.924374-25.900869 8.110373-30.348493l105.696475-37.67399m-158.021462 56.249361c12.034747-4.185999 27.732243 2.354624 35.319367 14.650996l65.667859 109.359224c7.587123 12.296372 3.924374 25.900869-8.110373 30.348492l-105.696475 37.673991c-12.034747 4.185999-27.732243-2.354624-35.319366-14.650996L358.556975 801.357179c-7.587123-12.296372-3.924374-25.900869 8.110373-30.348492l105.696474-37.673991m-157.759836 56.249361c12.034747-4.185999 27.732243 2.354624 35.319366 14.650997l65.667859 109.359223c7.587123 12.296372 3.924374 25.900869-8.110373 30.348493l-105.696474 37.67399c-12.034747 4.185999-27.732243-2.354624-35.319367-14.650996l-65.667859-109.359223c-7.587123-12.296372-3.924374-25.900869 8.110373-30.348493l105.696475-37.673991m-36.104241 212.177823l479.820132-171.364333-104.388349-173.457332-479.820133 171.364333 104.38835 173.457332" fill="#3F3B3A" p-id="16229"></path><path d="M617.565662 869.118038l105.696474-37.673991c12.034747-4.185999 15.697496-17.790496 8.110373-30.348493l-65.667859-109.359223c-7.587123-12.296372-23.284619-19.09862-35.319366-14.650996l-105.696475 37.67399c-12.034747 4.185999-15.697496 17.790496-8.110373 30.348493l65.667859 109.359223c7.587123 12.296372 23.284619 18.836995 35.319367 14.650997" fill="#E9B82B" p-id="16230"></path><path d="M459.805825 925.367399l105.696474-37.673991c12.034747-4.185999 15.697496-17.790496 8.110373-30.348492L507.683189 748.247317c-7.587123-12.296372-23.284619-19.09862-35.319367-14.650996l-105.696474 37.673991c-12.034747 4.185999-15.697496 17.790496-8.110373 30.348492l65.667859 109.359224c7.848748 12.034747 23.546244 18.57537 35.580991 14.389371" fill="#F1BEC8" p-id="16231"></path><path d="M302.045989 981.61676l105.696474-37.67399c12.034747-4.185999 15.697496-17.790496 8.110373-30.348493l-65.667859-109.359223c-7.587123-12.296372-23.284619-19.09862-35.319366-14.650997l-105.696475 37.673991c-12.034747 4.185999-15.697496 17.790496-8.110373 30.348493l65.667859 109.359223c7.325498 12.557997 23.284619 19.09862 35.319367 14.650996" fill="#A5C64B" p-id="16232"></path><path d="M174.37302 829.351048l219.241696-302.700052 480.081758-171.364333-219.241696 302.700051z" fill="#29527C" p-id="16233"></path><path d="M841.516607 369.41441c12.034747-4.185999 17.267246-1.56975 11.773122 6.017373L805.150741 442.146142c-5.494124 7.587123-19.62187 17.267246-31.656617 21.453245l-105.696475 37.673991c-12.034747 4.185999-17.267246 1.56975-11.773122-6.017374l48.138989-66.714359c5.494124-7.587123 19.62187-17.267246 31.656617-21.453244l105.696474-37.673991m-157.759836 56.510986c12.034747-4.185999 17.267246-1.56975 11.773122 6.017374l-48.138989 66.714358c-5.494124 7.587123-19.62187 17.267246-31.656617 21.453245l-105.696474 37.673991c-12.034747 4.185999-17.267246 1.56975-11.773122-6.017374l48.138988-66.714358c5.494124-7.587123 19.62187-17.267246 31.656617-21.453245l105.696475-37.673991M525.996934 482.174757c12.034747-4.185999 17.267246-1.56975 11.773122 6.017374L489.369443 554.644865c-5.494124 7.587123-19.62187 17.267246-31.656617 21.453244l-105.696474 37.673991c-12.034747 4.185999-17.267246 1.56975-11.773123-6.017373l48.138989-66.714359c5.494124-7.587123 19.62187-17.267246 31.656617-21.453245l105.958099-37.412366m242.787941-12.034747c12.034747-4.185999 17.267246-1.56975 11.773122 6.017374l-48.138988 66.714358c-5.494124 7.587123-19.62187 17.267246-31.656618 21.453245L595.065917 601.737353c-12.034747 4.185999-17.267246 1.56975-11.773122-6.017373l48.138988-66.714359c5.494124-7.587123 19.62187-17.267246 31.656618-21.453245l105.696474-37.412366m-157.759837 56.249361c12.034747-4.185999 17.267246-1.56975 11.773122 6.017374L574.659172 599.121104c-5.494124 7.587123-19.62187 17.267246-31.656617 21.453244l-105.696474 37.673991c-12.034747 4.185999-17.267246 1.56975-11.773122-6.017373l48.138988-66.714359c5.494124-7.587123 19.62187-17.267246 31.656617-21.453245l105.696474-37.673991m-158.021461 56.249362c12.034747-4.185999 17.267246-1.56975 11.773122 6.017373l-48.138988 66.714359c-5.494124 7.587123-19.62187 17.267246-31.656617 21.453245l-105.696475 37.673991c-12.034747 4.185999-17.267246 1.56975-11.773122-6.017374l48.138988-66.714359c5.494124-7.587123 19.62187-17.267246 31.656618-21.453244l105.696474-37.673991m243.049566-12.034747c12.034747-4.185999 17.267246-1.56975 11.773122 6.017373l-48.138989 66.714359c-5.494124 7.587123-19.62187 17.267246-31.656617 21.453245l-105.696474 37.673991c-12.034747 4.185999-17.267246 1.56975-11.773122-6.017374l48.138988-66.714359c5.494124-7.587123 19.62187-17.267246 31.656617-21.453245l105.696475-37.67399m-158.021462 56.249361c12.034747-4.185999 17.267246-1.56975 11.773122 6.017373l-48.138988 66.714359c-5.494124 7.587123-19.62187 17.267246-31.656617 21.453245L364.574348 758.712315c-12.034747 4.185999-17.267246 1.56975-11.773122-6.017374l48.138989-66.714358c5.494124-7.587123 19.62187-17.267246 31.656617-21.453245l105.434849-37.673991m-157.759836 56.510986c12.034747-4.185999 17.267246-1.56975 11.773122 6.017374L343.905979 756.096065c-5.494124 7.587123-19.62187 17.267246-31.656618 21.453245l-105.696474 37.673991c-12.034747 4.185999-17.267246 1.56975-11.773122-6.017374l48.138988-66.714358c5.494124-7.587123 19.62187-17.267246 31.656617-21.453245l105.696475-37.673991M172.80327 831.705672l479.820133-171.364333 222.642821-307.670925-479.820133 171.364333L172.80327 831.705672" fill="#3F3B3A" p-id="16234"></path><path d="M522.334185 702.462954l105.696474-37.673991c12.034747-4.185999 26.162494-13.866122 31.656617-21.453245l48.138989-66.714359c5.494124-7.587123 0.261625-10.203373-11.773122-6.017373l-105.696475 37.67399c-12.034747 4.185999-26.162494 13.866122-31.656617 21.453245l-48.138988 66.714359c-5.494124 7.587123-0.261625 10.203373 11.773122 6.017374" fill="#A4C64B" p-id="16235"></path><path d="M364.574348 758.712315l105.696475-37.673991c12.034747-4.185999 26.162494-13.866122 31.656617-21.453245l48.138988-66.714359c5.494124-7.587123 0.261625-10.203373-11.773122-6.017373L432.596832 664.527338c-12.034747 4.185999-26.162494 13.866122-31.656617 21.453245l-48.138989 66.714358c-5.494124 7.587123-0.261625 10.203373 11.773122 6.017374" fill="#E1898B" p-id="16236"></path><path d="M206.552887 814.961676l105.696474-37.673991c12.034747-4.185999 26.162494-13.866122 31.656618-21.453245l48.138988-66.714358c5.494124-7.587123 0.261625-10.203373-11.773122-6.017374L274.836995 721.038324c-12.034747 4.185999-26.162494 13.866122-31.656617 21.453245l-48.138988 66.714358c-5.755749 7.325498-0.261625 10.203373 11.511497 5.755749" fill="#ECD158" p-id="16237"></path><path d="M595.065917 601.737353l105.696474-37.673991c12.034747-4.185999 26.162494-13.866122 31.656618-21.453244l48.138988-66.714359c5.494124-7.587123 0.261625-10.203373-11.773122-6.017374L663.088401 507.552376c-12.034747 4.185999-26.162494 13.866122-31.656618 21.453245l-48.138988 66.714359c-5.494124 7.587123-0.261625 10.464997 11.773122 6.017373" fill="#E9B82B" p-id="16238"></path><path d="M437.306081 658.248339l105.696474-37.673991c12.034747-4.185999 26.162494-13.866122 31.656617-21.453244l48.138988-66.714359c5.494124-7.587123 0.261625-10.203373-11.773122-6.017374l-105.696474 37.673991c-12.034747 4.185999-26.162494 13.866122-31.656617 21.453245l-48.138988 66.714359c-5.494124 7.587123-0.261625 10.203373 11.773122 6.017373" fill="#F9E3ED" p-id="16239"></path><path d="M279.546244 714.497701l105.696474-37.673991c12.034747-4.185999 26.162494-13.866122 31.656618-21.453245l48.138988-66.714359c5.494124-7.587123 0.261625-10.203373-11.773122-6.017373l-105.696474 37.673991c-12.034747 4.185999-26.162494 13.866122-31.656618 21.453244l-48.138988 66.714359c-5.494124 7.587123-0.261625 10.203373 11.773122 6.017374" fill="#A3CEDE" p-id="16240"></path><path d="M667.797649 501.273378l105.696475-37.673991c12.034747-4.185999 26.162494-13.866122 31.656617-21.453245l48.138988-66.714359c5.494124-7.587123 0.261625-10.203373-11.773122-6.017373l-105.696474 37.673991c-12.034747 4.185999-26.162494 13.866122-31.656617 21.453244l-48.138989 66.714359c-5.494124 7.587123-0.261625 10.203373 11.773122 6.017374" fill="#F9E1EC" p-id="16241"></path><path d="M510.037813 557.522739l105.696474-37.673991c12.034747-4.185999 26.162494-13.866122 31.656617-21.453245l48.138989-66.714358c5.494124-7.587123 0.261625-10.203373-11.773122-6.017374l-105.696475 37.673991c-12.034747 4.185999-26.162494 13.866122-31.656617 21.453245l-48.138988 66.714358c-5.494124 7.587123-0.261625 10.464997 11.773122 6.017374" fill="#F1BEC8" p-id="16242"></path><path d="M352.277976 614.033725l105.696475-37.673991c12.034747-4.185999 26.162494-13.866122 31.656617-21.453244l48.138988-66.714359c5.494124-7.587123 0.261625-10.203373-11.773122-6.017374l-105.696474 37.673991c-12.034747 4.185999-26.162494 13.866122-31.656617 21.453245l-48.138989 66.714359c-5.494124 7.587123-0.261625 10.203373 11.773122 6.017373" fill="#4077AD" p-id="16243"></path><path d="M856.429228 324.676546l71.685233 180.521206-500.488503 282.554931-71.685232-180.521206z" fill="#3C6EA1" p-id="16244"></path><path d="M829.48186 351.100664c12.557997-7.063873 26.947368-2.092999 32.179867 10.988248l45.522739 115.114971c5.232499 13.081247-0.784875 29.301993-13.342872 36.365867L783.697496 575.574859c-12.557997 7.063873-26.947368 2.092999-31.918242-10.988247l-45.522739-115.114972c-5.232499-13.081247 0.784875-29.301993 13.342872-36.365866l109.882473-62.00511m-164.562085 92.876853c12.557997-7.063873 26.947368-2.092999 32.179867 10.988247l45.522739 115.114972c5.232499 13.081247-0.784875 29.301993-13.342872 36.365866l-110.144098 62.266735c-12.557997 7.063873-26.947368 2.092999-32.179867-10.988248l-45.522739-115.114971c-5.232499-13.081247 0.784875-29.301993 13.342872-36.365867l110.144098-62.266734m-164.562085 92.876852c12.557997-7.063873 26.947368-2.092999 31.918243 10.988247l45.522738 115.114972c5.232499 13.081247-0.784875 29.301993-13.342871 36.365866l-109.882473 62.00511c-12.557997 7.063873-26.947368 2.092999-32.179868-10.988247l-45.522739-115.114972c-5.232499-13.081247 0.784875-29.301993 13.342872-36.365866l110.144098-62.00511m-72.208482 251.944813l500.226878-282.293306-72.470107-182.614205-500.226878 282.293306 72.470107 182.614205" fill="#3F3B3A" p-id="16245"></path><path d="M783.697496 575.574859l110.144098-62.266734c12.557997-7.063873 18.57537-23.284619 13.342872-36.365866l-45.522739-115.114972c-5.232499-13.081247-19.62187-18.052121-32.179867-10.988248l-110.144098 62.266735c-12.557997 7.063873-18.313746 23.284619-13.342872 36.365866l45.522739 115.114972c5.232499 13.342872 19.62187 18.052121 32.179867 10.988247" fill="#E9B82B" p-id="16246"></path><path d="M619.135411 668.451712l110.144098-62.266735c12.557997-7.063873 18.57537-23.284619 13.342872-36.365866l-45.522739-115.114972c-5.232499-13.081247-19.62187-18.052121-32.179867-10.988247L554.775677 505.982626c-12.557997 7.063873-18.57537 23.546244-13.342872 36.365867l45.522739 115.114971c5.232499 13.342872 19.62187 18.052121 32.179867 10.988248" fill="#F1BEC8" p-id="16247"></path><path d="M454.573327 761.328564l110.144098-62.266735c12.557997-7.063873 18.57537-23.284619 13.342871-36.365866l-45.522739-115.114972c-5.232499-13.081247-19.62187-18.052121-31.918242-10.988247l-110.144098 62.266735c-12.557997 7.063873-18.57537 23.546244-13.342872 36.365866l45.522739 115.114972c5.232499 13.342872 19.62187 18.052121 31.918243 10.988247" fill="#A5C64B" p-id="16248"></path><path d="M355.940726 607.231477l71.685232 180.521206L154.75115 667.143587l-71.685233-180.521206z" fill="#21486F" p-id="16249"></path><path d="M342.859479 608.801226c6.802248 3.139499 16.482371 15.959121 21.714869 29.040368l45.522739 115.114972c5.232499 13.081247 3.924374 21.19162-2.877874 18.313746l-59.91211-26.424119c-6.802248-3.139499-16.482371-15.959121-21.71487-29.040368l-45.522739-115.114972c-5.232499-13.081247-3.924374-21.19162 2.877874-18.313745l59.912111 26.424118m-89.737353-39.505365c6.802248 3.139499 16.482371 15.959121 21.714869 29.040368l45.522739 115.114972c5.232499 13.081247 3.924374 21.19162-2.877874 18.313745l-59.91211-26.424118c-6.802248-3.139499-16.482371-15.959121-21.71487-29.040368l-45.522739-115.114972c-5.232499-13.081247-3.924374-21.19162 2.877874-18.313746l59.912111 26.424119m-89.737353-39.76699c6.802248 3.139499 16.482371 15.959121 21.714869 29.040368l45.522739 115.114972c5.232499 13.081247 3.924374 21.19162-2.877874 18.313745l-59.91211-26.424118c-6.802248-3.139499-16.482371-15.959121-21.71487-29.040368l-45.522739-115.114972c-5.232499-13.081247-3.924374-21.19162 2.877874-18.313746l59.912111 26.424119m-8.110373 138.661216l272.874808 120.609095-72.470107-182.614205-272.874809-120.609096 72.470108 182.614206" fill="#3F3B3A" p-id="16250"></path><path d="M347.307103 744.846193l59.91211 26.424119c6.802248 3.139499 8.110373-5.232499 2.877874-18.313746l-45.522739-115.114972c-5.232499-13.081247-14.912621-26.162494-21.714869-29.040368l-59.912111-26.424118c-6.802248-3.139499-8.110373 5.232499-2.877874 18.313745l45.522739 115.114972c4.970874 12.819622 14.912621 25.900869 21.71487 29.040368" fill="#4077AC" p-id="16251"></path><path d="M257.56975 705.079203l59.91211 26.424118c6.802248 3.139499 8.110373-5.232499 2.877874-18.313745l-45.522739-115.114972c-5.232499-13.081247-14.912621-26.162494-21.714869-29.040368l-59.912111-26.424118c-6.802248-3.139499-8.110373 5.232499-2.877874 18.313745l45.522739 115.114972c5.232499 13.081247 14.912621 25.900869 21.71487 29.040368" fill="#DF623E" p-id="16252"></path><path d="M167.832397 665.312213L227.744507 691.736331c6.802248 3.139499 8.110373-5.232499 2.877874-18.313745l-45.522739-115.114972c-5.232499-13.081247-14.912621-26.162494-21.714869-29.040368l-59.912111-26.424119c-6.802248-3.139499-8.110373 5.232499-2.877874 18.313746l45.522739 115.114972c5.232499 13.081247 14.912621 26.162494 21.71487 29.040368" fill="#A3CEDE" p-id="16253"></path><path d="M583.55442 204.06745l272.874808 120.609096-500.488502 282.554931L83.065917 486.622381z" fill="#2F5A86" p-id="16254"></path><path d="M383.149719 588.394481c-12.557997 7.063873-28.255493 10.464997-35.057741 7.325499l-59.912111-26.424119c-6.802248-3.139499-2.092999-11.249872 10.203373-18.313746l110.144098-62.266734c12.557997-7.063873 28.255493-10.464997 35.057741-7.325499l59.912111 26.424119c6.802248 3.139499 2.092999 11.249872-10.203373 18.313746l-110.144098 62.266734m164.562085-92.876852c-12.557997 7.063873-28.255493 10.464997-35.057742 7.325498L452.741952 476.419009c-6.802248-3.139499-2.092999-11.249872 10.203372-18.313746l110.144099-62.266735c12.557997-7.063873 28.255493-10.464997 35.057741-7.325498l59.91211 26.424119c6.802248 3.139499 2.092999 11.249872-10.203372 18.313745l-110.144098 62.266735m164.562085-92.876852c-12.557997 7.063873-28.255493 10.464997-35.057742 7.325498l-59.91211-26.424119c-6.802248-3.139499-2.092999-11.249872 10.203372-18.313745l110.144098-62.266735c12.557997-7.063873 28.255493-10.464997 35.057742-7.325498l59.91211 26.424118c6.802248 3.139499 2.092999 11.249872-10.203372 18.313746l-110.144098 62.266735m-419.646398 145.725089c-12.557997 7.063873-28.255493 10.464997-35.057741 7.325498l-59.912111-26.424118c-6.802248-3.139499-2.092999-11.249872 10.203373-18.313746l110.144098-62.266735c12.557997-7.063873 28.255493-10.464997 35.057741-7.325498l59.912111 26.424119c6.802248 3.139499 2.092999 11.249872-10.203373 18.313745l-110.144098 62.266735m164.562085-92.876852c-12.557997 7.063873-28.255493 10.464997-35.057742 7.325498l-59.91211-26.424119c-6.802248-3.139499-2.092999-11.249872 10.203373-18.313745l110.144098-62.266735c12.557997-7.063873 28.255493-10.464997 35.057741-7.325498l59.91211 26.424118c6.802248 3.139499 2.092999 11.249872-10.203372 18.313746l-110.144098 62.266735m164.562085-92.876853c-12.557997 7.063873-28.255493 10.464997-35.057742 7.325499l-59.91211-26.424119c-6.802248-3.139499-2.092999-11.249872 10.203372-18.313745l110.144099-62.266735c12.557997-7.063873 28.255493-10.464997 35.057741-7.325498l59.91211 26.424118c6.802248 3.139499 2.092999 11.249872-10.203372 18.313746l-110.144098 62.266734M202.105263 508.337251c-12.557997 7.063873-28.255493 10.464997-35.057741 7.325498L107.135411 489.238631c-6.802248-3.139499-2.092999-11.249872 10.203373-18.313746l110.144098-62.266735c12.557997-7.063873 28.255493-10.464997 35.057741-7.325498l59.912111 26.424119c6.802248 3.139499 2.092999 11.249872-10.203373 18.313745l-110.144098 62.266735m164.30046-92.876852c-12.557997 7.063873-28.255493 10.464997-35.057741 7.325498l-59.912111-26.424119c-6.802248-3.139499-2.092999-11.249872 10.203373-18.313745l110.144098-62.266735c12.557997-7.063873 28.255493-10.464997 35.057741-7.325498L486.753194 334.879918c6.802248 3.139499 2.092999 11.249872-10.203373 18.313746L366.405723 415.460399m164.562085-92.876853c-12.557997 7.063873-28.255493 10.464997-35.057742 7.325498L435.997956 303.484926c-6.802248-3.139499-2.092999-11.249872 10.203373-18.313746l110.144098-62.266734c12.557997-7.063873 28.255493-10.464997 35.057741-7.325499l59.91211 26.424119c6.802248 3.139499 2.092999 11.249872-10.203372 18.313745l-110.144098 62.266735m50.231988-119.300971L80.972918 485.575881l277.322432 122.702095 500.226878-282.293306-277.322432-122.702095" fill="#3F3B3A" p-id="16255"></path><path d="M227.482882 408.65815L117.338784 470.924885c-12.557997 7.063873-17.267246 15.174246-10.203373 18.313746l59.912111 26.424118c6.802248 3.139499 22.499745-0.261625 35.057741-7.325498l110.144098-62.266735c12.557997-7.063873 17.005621-15.174246 10.203373-18.313745l-59.912111-26.424119c-7.063873-3.139499-22.761369 0.261625-35.057741 7.325498" fill="#A4C64B" p-id="16256"></path><path d="M391.783342 315.781298l-110.144098 62.266735c-12.557997 7.063873-17.267246 15.174246-10.203373 18.313745l59.912111 26.424119c6.802248 3.139499 22.499745-0.261625 35.057741-7.325498l110.144098-62.266735c12.557997-7.063873 17.267246-15.174246 10.203373-18.313746l-59.912111-26.424118c-6.802248-3.139499-22.499745 0.261625-35.057741 7.325498" fill="#E1898B" p-id="16257"></path><path d="M556.345427 222.904446L446.201329 285.17118c-12.557997 7.063873-17.005621 15.174246-10.203373 18.313746l59.91211 26.424118c6.802248 3.139499 22.499745-0.261625 35.057742-7.325498L641.111906 260.316811c12.557997-7.063873 17.267246-15.174246 10.203372-18.313745L591.403168 215.578947c-6.802248-3.139499-22.499745 0.261625-35.057741 7.325499" fill="#ECD158" p-id="16258"></path><path d="M318.00511 448.686765l-110.144098 62.266735c-12.557997 7.063873-17.267246 15.174246-10.203373 18.313746l59.912111 26.424118c6.802248 3.139499 22.499745-0.261625 35.057741-7.325498l110.144098-62.266735c12.557997-7.063873 17.005621-15.174246 10.203373-18.313745l-59.912111-26.424119c-6.802248-2.877874-22.499745 0.261625-35.057741 7.325498" fill="#E9B82B" p-id="16259"></path><path d="M482.567195 355.809913l-110.144098 62.266735c-12.557997 7.063873-17.267246 15.174246-10.203373 18.313745l59.91211 26.424119c6.802248 3.139499 22.499745-0.261625 35.057742-7.325498l110.144098-62.266735c12.557997-7.063873 17.005621-15.174246 10.203372-18.313746l-59.91211-26.424118c-7.063873-2.877874-22.499745 0.261625-35.057741 7.325498" fill="#F9E3ED" p-id="16260"></path><path d="M646.867655 262.933061l-110.144099 62.266735c-12.557997 7.063873-17.005621 15.174246-10.203372 18.313745l59.91211 26.424119c6.802248 3.139499 22.499745-0.261625 35.057742-7.325499l110.144098-62.266734c12.557997-7.063873 17.005621-15.174246 10.203372-18.313746l-59.91211-26.424118c-6.802248-2.877874-22.499745 0.261625-35.057741 7.325498" fill="#A3CEDE" p-id="16261"></path><path d="M408.527338 488.715381L298.38324 550.982115c-12.557997 7.063873-17.005621 15.174246-10.203373 18.313746l59.912111 26.424119c6.802248 3.139499 22.499745-0.261625 35.057741-7.325499l110.144098-62.266734c12.557997-7.063873 17.005621-15.174246 10.203373-18.313746L443.585079 481.389882c-6.802248-2.877874-22.499745 0.261625-35.057741 7.325499" fill="#F9E1EC" p-id="16262"></path><path d="M573.089423 395.838528l-110.144099 62.266735c-12.557997 7.063873-17.005621 15.174246-10.203372 18.313746l59.91211 26.424118c6.802248 3.139499 22.499745-0.261625 35.057742-7.325498l110.144098-62.266735c12.557997-7.063873 17.267246-15.174246 10.203372-18.313745l-59.91211-26.424119c-6.802248-2.877874-22.499745 0.261625-35.057741 7.325498" fill="#F1BEC8" p-id="16263"></path><path d="M737.651507 302.961676l-110.144098 62.266735c-12.557997 7.063873-17.005621 15.174246-10.203372 18.313745l59.91211 26.424119c6.802248 3.139499 22.499745-0.261625 35.057742-7.325498l110.144098-62.266735c12.557997-7.063873 17.267246-15.174246 10.203372-18.313746L772.709249 295.636178c-6.802248-2.877874-22.499745 0.261625-35.057742 7.325498" fill="#4077AD" p-id="16264"></path><path d="M754.395503 27.208993l70.115483 181.829331-158.806336 276.014308-70.115483-181.829331z" fill="#3A6B9C" p-id="16265"></path><path d="M748.116505 53.109862c3.924374-6.802248 11.249872-1.831375 16.482371 11.511497L809.33674 180.521206c4.970874 13.081247 6.017374 29.563618 2.092999 36.365866l-35.057741 60.696985c-3.924374 6.802248-11.249872 1.831375-16.482371-11.511497l-44.737864-116.161472c-4.970874-13.081247-6.017374-29.563618-2.093-36.365866l35.057742-60.43536M696.053143 143.893715c3.924374-6.802248 11.249872-1.831375 16.482371 11.511497l44.737864 116.161472c4.970874 13.081247 6.017374 29.563618 2.092999 36.365866l-35.057741 60.696985c-3.924374 6.802248-11.249872 1.831375-16.482371-11.249872l-44.737864-116.161472c-4.970874-13.081247-6.017374-29.563618-2.093-36.365866L696.053143 143.893715m-52.324988 90.783853c3.924374-6.802248 11.249872-1.831375 16.482371 11.511497l44.737864 116.161472c4.970874 13.081247 6.017374 29.563618 2.093 36.365866l-35.057742 60.696985c-3.924374 6.802248-11.249872 1.831375-16.482371-11.249872l-44.737864-116.161472c-4.970874-13.081247-6.017374-29.563618-2.092999-36.365866L643.728155 234.677568m22.23812 251.421563l158.806336-276.014307-70.638733-183.92233-158.806336 276.014307 70.638733 183.92233" fill="#3F3B3A" p-id="16266"></path><path d="M776.371998 277.584057L811.168114 216.887072c3.924374-6.802248 3.139499-23.284619-2.092999-36.365866l-44.737864-116.161472c-4.970874-13.081247-12.296372-18.313746-16.482371-11.511497l-35.057742 60.696985c-3.924374 6.802248-3.139499 23.284619 2.093 36.365866l44.737864 116.161472c5.494124 13.342872 12.819622 18.57537 16.743996 11.511497" fill="#E9B82B" p-id="16267"></path><path d="M724.047011 368.36791l35.057741-60.696985c3.924374-6.802248 3.139499-23.284619-2.092999-36.365866l-44.737864-116.161472c-4.970874-13.081247-12.296372-18.313746-16.482371-11.511497l-35.057742 60.696985c-3.924374 6.802248-3.139499 23.284619 2.093 36.365866l44.737864 116.161472c5.232499 13.342872 12.557997 18.57537 16.482371 11.511497" fill="#F1BEC8" p-id="16268"></path><path d="M671.983648 459.151763l35.057742-60.696985c3.924374-6.802248 3.139499-23.284619-2.093-36.365866L660.210526 245.92744c-4.970874-13.081247-12.296372-18.313746-16.482371-11.511497l-35.057741 60.696985c-3.924374 6.802248-3.139499 23.284619 2.092999 36.365866l44.737864 116.161472c4.970874 13.342872 12.296372 18.313746 16.482371 11.511497" fill="#A5C64B" p-id="16269"></path><path d="M595.589167 303.223301l70.115483 181.829331-549.150741 115.376596-70.115483-182.090955z" fill="#305C88" p-id="16270"></path><path d="M565.502299 319.182422c13.604497-2.877874 29.040368 5.494124 34.011242 18.575371l44.737864 116.161471c4.970874 13.081247-1.831375 26.162494-15.697496 29.040368l-120.87072 25.377619c-13.604497 2.877874-29.040368-5.494124-34.011242-18.575371l-44.737864-116.161471c-4.970874-13.081247 1.831375-26.162494 15.697496-29.040368l120.87072-25.377619m-180.521205 37.935616c13.866122-2.877874 29.040368 5.494124 34.011241 18.57537l44.737864 116.161472c4.970874 13.081247-1.831375 26.162494-15.697496 29.040368l-120.87072 25.377619c-13.866122 2.877874-29.040368-5.494124-34.011242-18.575371l-44.737864-116.161471c-4.970874-13.081247 1.831375-26.162494 15.697496-29.040368l120.870721-25.377619m-180.521206 37.935616c13.604497-2.877874 29.040368 5.494124 34.011241 18.57537l44.737864 116.161472c4.970874 13.081247-1.831375 26.162494-15.697496 29.040368L146.640777 584.208482c-13.604497 2.877874-29.040368-5.494124-34.011242-18.57537l-44.737864-116.161472c-4.970874-13.081247 1.831375-26.162494 15.697496-29.040368l120.870721-25.377618m-87.382729 206.422074l548.889116-115.114972-70.900358-184.183955-548.889116 115.114972 70.900358 184.183955" fill="#3F3B3A" p-id="16271"></path><path d="M507.683189 508.598876l120.87072-25.377619c13.604497-2.877874 20.66837-15.959121 15.697496-29.040368l-44.737864-116.161472c-4.970874-13.081247-20.406745-21.453245-34.011242-18.57537l-120.87072 25.377619c-13.604497 2.877874-20.66837 15.959121-15.697496 29.040368l44.737864 116.161471c4.970874 13.081247 20.406745 21.453245 34.011242 18.575371" fill="#E9B82B" p-id="16272"></path><path d="M327.161983 546.272867l120.87072-25.377619c13.866122-2.877874 20.66837-15.959121 15.697496-29.040368l-44.737864-116.161472c-4.970874-13.081247-20.406745-21.453245-34.011241-18.57537l-120.870721 25.377619c-13.866122 2.877874-20.66837 15.959121-15.697496 29.040368l44.737864 116.161471c4.970874 13.081247 20.406745 21.453245 34.011242 18.575371" fill="#F1BEC8" p-id="16273"></path><path d="M146.640777 584.208482l120.87072-25.377618c13.604497-2.877874 20.66837-15.959121 15.697496-29.040368l-44.737864-116.161472c-4.970874-13.081247-20.406745-21.453245-34.011241-18.57537l-120.870721 25.377618c-13.604497 2.877874-20.66837 15.959121-15.697496 29.040368L112.629535 565.633112c5.232499 13.081247 20.406745 21.453245 34.011242 18.57537" fill="#A5C64B" p-id="16274"></path><path d="M754.395503 27.208993l-158.806336 276.014308-549.150741 115.114972L205.506387 142.323965z" fill="#2E5A86" p-id="16275"></path><path d="M82.281042 407.873275c-13.604497 2.877874-21.71487-0.261625-17.790495-7.325498L99.548288 339.850792c3.924374-6.802248 18.313746-14.912621 32.179867-17.790496l120.870721-25.377618c13.604497-2.877874 21.71487 0.261625 17.528871 7.325498l-35.057742 60.696985c-3.924374 6.802248-18.313746 14.912621-31.918242 17.790496l-120.870721 25.377618m180.521206-37.935615c-13.866122 2.877874-21.71487-0.261625-17.790495-7.325499L280.069494 301.915176c3.924374-6.802248 18.313746-14.912621 32.179867-17.790495l120.870721-25.377619c13.866122-2.877874 21.71487 0.261625 17.790495 7.325498l-35.057741 60.696985c-3.924374 6.802248-18.313746 14.912621-32.179867 17.790496l-120.870721 25.377619m180.259581-37.935616c-13.604497 2.877874-21.71487-0.261625-17.790495-7.325498l35.057741-60.696985c3.924374-6.802248 18.313746-14.912621 31.918242-17.790496l120.870721-25.377619c13.604497-2.877874 21.71487 0.261625 17.790495 7.325498l-35.057741 60.696985c-3.924374 6.802248-18.313746 14.912621-32.179867 17.790496l-120.609096 25.377619m-308.194174-15.959121c-13.604497 2.877874-21.71487-0.261625-17.790496-7.325498l35.057741-60.696986c3.924374-6.802248 18.313746-14.912621 32.179868-17.790495l120.87072-25.377619c13.604497-2.877874 21.71487 0.261625 17.790496 7.325498L287.918242 272.874808c-3.924374 6.802248-18.313746 14.912621-31.918242 17.790496l-121.132345 25.377619m180.521206-37.935616c-13.866122 2.877874-21.71487-0.261625-17.790496-7.325498l35.057741-60.696985c3.924374-6.802248 18.313746-14.912621 32.179867-17.790496l120.870721-25.377619c13.866122-2.877874 21.71487 0.261625 17.790496 7.325498L468.439448 234.939193c-3.924374 6.802248-18.313746 14.912621-32.179867 17.790495l-120.87072 25.377619m180.521205-37.673991c-13.604497 2.877874-21.71487-0.261625-17.52887-7.325498l35.057741-60.696985c3.924374-6.802248 18.313746-14.912621 31.918242-17.790496l120.870721-25.377619c13.604497-2.877874 21.71487 0.261625 17.790496 7.325499L648.960654 197.265202c-3.924374 6.802248-18.313746 14.912621-32.179867 17.790495l-120.870721 25.377619M187.715892 224.474195c-13.604497 2.877874-21.71487-0.261625-17.790496-7.325498l35.057741-60.696985c3.924374-6.802248 18.313746-14.912621 32.179868-17.790496l120.87072-25.377619c13.604497-2.877874 21.71487 0.261625 17.528871 7.325499l-35.057742 60.696985c-3.924374 6.802248-18.313746 14.912621-31.918242 17.790495l-120.87072 25.377619m180.521206-37.935616c-13.866122 2.877874-21.71487-0.261625-17.790496-7.325498l35.057741-60.696985c3.924374-6.802248 18.313746-14.912621 32.179868-17.790496l120.87072-25.377618c13.866122-2.877874 21.71487 0.261625 17.790496 7.325498l-35.057742 60.696985c-3.924374 6.802248-18.313746 14.912621-32.179867 17.790496l-120.87072 25.377618m180.521206-37.935615c-13.604497 2.877874-21.71487-0.261625-17.528871-7.325498l35.057741-60.696986c3.924374-6.802248 18.313746-14.912621 31.918242-17.790495l120.870721-25.377619c13.604497-2.877874 21.71487 0.261625 17.790496 7.325498l-35.057742 60.696985c-3.924374 6.802248-18.313746 14.912621-32.179867 17.790496l-120.87072 25.377619m206.945324-123.748595L206.814512 139.969341 45.391926 420.431272l548.889116-115.114972L755.703628 24.854369" fill="#3F3B3A" p-id="16276"></path><path d="M357.7721 113.283597L237.163005 138.661216c-13.604497 2.877874-27.993868 10.726622-32.179868 17.790496L169.925396 217.148697c-3.924374 6.802248 3.924374 10.203373 17.790496 7.325498l120.87072-25.377619c13.604497-2.877874 27.993868-10.726622 31.918242-17.790495l35.057742-60.696985c3.924374-6.802248-3.924374-10.203373-17.790496-7.325499" fill="#A4C64B" p-id="16277"></path><path d="M538.293306 75.609607l-120.87072 25.377618c-13.866122 2.877874-27.993868 10.726622-32.179868 17.790496l-35.057741 60.696985c-3.924374 6.802248 3.924374 10.203373 17.790496 7.325498l120.87072-25.377618c13.866122-2.877874 27.993868-10.726622 32.179867-17.790496l35.057742-60.696985c3.924374-7.063873-3.924374-10.203373-17.790496-7.325498" fill="#E1898B" p-id="16278"></path><path d="M718.814512 37.673991l-120.87072 25.377619c-13.604497 2.877874-27.993868 10.726622-31.918243 17.790495L530.967808 141.277466c-3.924374 6.802248 3.924374 10.203373 17.528871 7.325498l120.87072-25.377619c13.604497-2.877874 27.993868-10.726622 32.179867-17.790496l35.057742-60.696985c3.924374-6.802248-4.185999-9.941748-17.790496-7.063873" fill="#ECD158" p-id="16279"></path><path d="M305.185488 205.11395l-120.87072 25.377619c-13.604497 2.877874-27.993868 10.726622-32.179868 17.790495L117.338784 308.717425c-3.924374 6.802248 3.924374 10.203373 17.790496 7.325498l120.87072-25.377619C269.604497 287.78743 283.993868 279.938682 287.918242 272.874808l35.057742-60.696985c3.662749-6.802248-4.185999-9.941748-17.790496-7.063873" fill="#E9B82B" p-id="16280"></path><path d="M485.445069 167.178334l-120.870721 25.377619c-13.866122 2.877874-27.993868 10.726622-32.179867 17.790496l-35.057741 60.696985c-3.924374 6.802248 3.924374 10.203373 17.790496 7.325498l120.87072-25.377619c13.866122-2.877874 27.993868-10.726622 32.179867-17.790495l35.057742-60.696986c3.924374-7.063873-3.924374-10.203373-17.790496-7.325498" fill="#F9E3ED" p-id="16281"></path><path d="M665.966275 129.242718l-120.870721 25.377619c-13.604497 2.877874-27.993868 10.726622-31.918242 17.790496l-35.057741 60.696985c-3.924374 6.802248 3.924374 10.203373 17.52887 7.325498l120.870721-25.377619c13.604497-2.877874 27.993868-10.726622 32.179867-17.790495l35.057742-60.696985c3.924374-6.802248-3.924374-10.203373-17.790496-7.325499" fill="#A3CEDE" p-id="16282"></path><path d="M252.337251 296.682678l-120.870721 25.377618c-13.604497 2.877874-27.993868 10.726622-32.179867 17.790496l-35.057741 60.696985c-3.924374 6.802248 3.924374 10.203373 17.790495 7.325498l120.870721-25.377618c13.604497-2.877874 27.993868-10.726622 31.918242-17.790496l35.057742-60.696985c4.185999-6.802248-3.924374-10.203373-17.528871-7.325498" fill="#F9E1EC" p-id="16283"></path><path d="M432.858457 258.747062l-120.870721 25.377619c-13.866122 2.877874-27.993868 10.726622-32.179867 17.790495l-35.057741 60.696985c-3.924374 6.802248 3.924374 10.203373 17.790495 7.325499l120.870721-25.377619c13.866122-2.877874 27.993868-10.726622 32.179867-17.790496l35.057741-60.696985c3.662749-6.802248-4.185999-10.203373-17.790495-7.325498" fill="#F1BEC8" p-id="16284"></path><path d="M613.379663 221.073071l-120.870721 25.377619c-13.604497 2.877874-27.993868 10.726622-31.918242 17.790495l-35.057741 60.696986c-3.924374 6.802248 3.924374 10.203373 17.790495 7.325498l120.870721-25.377619c13.604497-2.877874 27.993868-10.726622 32.179867-17.790496l35.057741-60.696985c3.401124-7.063873-4.447624-10.203373-18.05212-7.325498" fill="#4077AD" p-id="16285"></path></svg>